# xmcd
#
# Track frame offsets:
#	150
#	18957
#	36354
#	51827
#	67833
#	83493
#	103058
#	119758
#	135953
#	154673
#
# Disc length: 2301 seconds
#
# Revision: 1
# Processed by: cddbd v1.5.1PL0 Copyright (c) Steve Scherf et al.
# Submitted via: audiograbber 1.83.01
#
DISCID=7808fb0a
DTITLE=Γιώργος Νταλάρας - Θα έρθω να σε βρω
DYEAR=1900
DGENRE=
TTITLE0=Θα έρθω να σε βρω
TTITLE1=Σε ξένο όνειρο
TTITLE2=Παρίς
TTITLE3=Νύχτα στο Ελληνικό
TTITLE4=Πάμε γι' αλλού
TTITLE5=Κληρώθηκα
TTITLE6=Στένεψε ο κόσμος
TTITLE7=Μεσόγειος
TTITLE8=Εβγαλα τα μέσα έξω
TTITLE9=AGRIGENTO
EXTD=
EXTT0=
EXTT1=
EXTT2=
EXTT3=
EXTT4=
EXTT5=
EXTT6=
EXTT7=
EXTT8=
EXTT9=
PLAYORDER=
